<?xml version="1.0" encoding="utf-8"?>
<!-- Generator: Adobe Illustrator 22.0.1, SVG Export Plug-In . SVG Version: 6.00 Build 0)  -->
<svg version="1.1" id="Layer_1" xmlns="http://www.w3.org/2000/svg" xmlns:xlink="http://www.w3.org/1999/xlink" x="0px" y="0px"
	 viewBox="0 0 250 89" style="enable-background:new 0 0 250 89;" xml:space="preserve">
<style type="text/css">
	.st0{fill:#E6E7E8;}
</style>
<g>
	<g>
		<path class="st0" d="M41,84.5l-4.5-8.1h-3.6v8.1h-2c-1.6,0-2.9-1.3-2.9-2.9v-20h10.7c4.8,0,7.7,3.1,7.7,7.4c0,4-2.6,6.2-5.1,6.8
			l5.2,8.7H41z M41.5,68.9c0-1.9-1.5-3.1-3.4-3.1h-5.2V72h5.2C40,72.1,41.5,70.9,41.5,68.9z"/>
	</g>
	<g>
		<path class="st0" d="M50.1,84.5V61.6h16.2V63c0,1.6-1.3,2.8-2.8,2.8H55v4.8h9c1.2,0,2.1,1,2.1,2.1l0,0c0,1.2-1,2.1-2.1,2.1h-9V80
			h8.5c1.6,0,2.8,1.3,2.8,2.8v1.5H50.1V84.5z"/>
	</g>
	<g>
		<path class="st0" d="M86,84.5l-11-15v14.9h-2c-1.6,0-2.8-1.3-2.8-2.8v-20h5L85.8,76V61.6h2c1.6,0,2.8,1.3,2.8,2.8v20.1H86z"/>
	</g>
	<g>
		<path class="st0" d="M100.5,84.5V65.9h-3.9c-1.6,0-2.8-1.3-2.8-2.8v-1.5h18.3V63c0,1.6-1.3,2.8-2.8,2.8h-3.8v18.6L100.5,84.5
			L100.5,84.5z"/>
	</g>
	<g>
		<path class="st0" d="M139.2,82.6l-0.8-2h-9.8l-0.8,2c-0.4,1.1-1.5,1.8-2.7,1.8h-3.6l8.8-22.9h6.1l8.8,22.9h-3.6
			C140.6,84.5,139.6,83.8,139.2,82.6z M133.5,66.5l-3.6,9.9h7.1L133.5,66.5z"/>
	</g>
	<g>
		<path class="st0" d="M155.2,73.1c0-7.1,5.3-11.9,12.2-11.9c5,0,7.9,2.7,9.6,5.6l-2.1,1c-1.1,0.5-2.4,0.3-3.3-0.5
			c-1.1-1.1-2.6-1.8-4.2-1.8c-4.2,0-7.2,3.2-7.2,7.5s3,7.5,7.2,7.5c1.6,0,3.1-0.7,4.2-1.8c0.9-0.8,2.2-1.1,3.2-0.6l2.1,1
			c-1.6,2.9-4.5,5.6-9.6,5.6C160.6,84.9,155.2,80.1,155.2,73.1z"/>
	</g>
	<g>
		<path class="st0" d="M194.8,82.6l-0.8-2h-9.8l-0.8,2c-0.4,1.1-1.5,1.8-2.7,1.8h-3.6l8.8-22.9h6.1l8.8,22.9h-3.6
			C196.3,84.5,195.3,83.8,194.8,82.6z M189.2,66.5l-3.6,9.9h7.1L189.2,66.5z"/>
	</g>
	<g>
		<path class="st0" d="M203.2,84.5l5.2-8.7c-2.5-0.6-5.1-2.8-5.1-6.8c0-4.3,3-7.4,7.7-7.4h10.7v20.1c0,1.6-1.3,2.8-2.8,2.8h-2v-8.1
			h-3.6l-4.5,8.1H203.2z M211.7,72.1h5.2v-6.2h-5.2c-1.9,0-3.4,1.2-3.4,3.1S209.8,72.1,211.7,72.1z"/>
	</g>
</g>
<g>
	<path class="st0" d="M113.4,22.3l-9.9-16c-1-1.5-2.6-2.5-4.4-2.5h-9.7l19.1,29.5c0.5,0.8,0.8,1.8,0.8,2.8v19.8h11.1V36.1
		c0-1,0.3-2,0.8-2.8l19.1-29.5h-9.7c-1.8,0-3.5,0.9-4.4,2.5l-9.9,16C115.7,23.4,114.1,23.4,113.4,22.3z"/>
</g>
<g>
	<path class="st0" d="M149.6,3.8h-6v52.1h33.2v-4.5c0-2.9-2.3-5.2-5.2-5.2h-16.8V9C154.8,6.2,152.5,3.8,149.6,3.8z"/>
</g>
<g>
	<path class="st0" d="M232.7,3.8v32.7L210.1,5.9c-1-1.3-2.5-2.1-4.2-2.1h-8.8v52.1h11.1v-34l23.3,31.8c1,1.3,2.5,2.1,4.2,2.1h8V9
		c0-2.9-2.3-5.2-5.2-5.2C238.5,3.8,232.7,3.8,232.7,3.8z"/>
</g>
<g>
	<path class="st0" d="M32.5,3.8C17.5,4,6,14.4,6,29.9c0,15.3,11.5,25.9,26.5,26H45v-4.3c0-2.9-2.3-5.2-5.2-5.2h-7.2
		c-9-0.2-15.5-7.1-15.5-16.5s6.5-16.3,15.5-16.5l0,0h7.2c2.9,0,5.2-2.3,5.2-5.2V3.8H32.5z"/>
</g>
<g>
	<path class="st0" d="M49.4,55.9h36.9v-4.5c0-2.9-2.3-5.2-5.2-5.2H60.5V34.3h20.9c2.7,0,4.9-2.2,4.9-4.9l0,0c0-2.7-2.2-4.9-4.9-4.9
		H60.5V13.6H81c2.9,0,5.2-2.3,5.2-5.2V3.8H49.4V55.9z"/>
</g>
<g>
	<path class="st0" d="M49,34.3h18c2.2,0,4-1.8,4-4v-1.8c0-2.2-1.8-4-4-4H49c-2.2,0-4,1.8-4,4v1.8C45,32.5,46.8,34.3,49,34.3z"/>
</g>
<g>
	<path class="st0" d="M181.3,55.9h6.8c2.3,0,4.3-1.9,4.3-4.3V15.2h-11.1V55.9z"/>
</g>
<g>
	<path class="st0" d="M192.4,3.9h-6.8c-2.3,0-4.3,1.9-4.3,4.3v5h11.1V3.9z"/>
</g>
<g>
	<path class="st0" d="M31.9,76.3H8.2c-1.2,0-2.1-1-2.1-2.1l0,0c0-1.2,1-2.1,2.1-2.1h23.7c1.2,0,2.1,1,2.1,2.1l0,0
		C34,75.4,33.1,76.3,31.9,76.3z"/>
</g>
<g>
	<path class="st0" d="M241.6,76.3h-23.7c-1.2,0-2.1-1-2.1-2.1l0,0c0-1.2,1-2.1,2.1-2.1h23.7c1.2,0,2.1,1,2.1,2.1l0,0
		C243.8,75.4,242.8,76.3,241.6,76.3z"/>
</g>
</svg>
