<?xml version="1.0" encoding="utf-8"?>
<!-- Generator: Adobe Illustrator 22.0.1, SVG Export Plug-In . SVG Version: 6.00 Build 0)  -->
<svg version="1.1" id="Layer_1" xmlns="http://www.w3.org/2000/svg" xmlns:xlink="http://www.w3.org/1999/xlink" x="0px" y="0px"
	 viewBox="0 0 220 89" style="enable-background:new 0 0 220 89;" xml:space="preserve">
<style type="text/css">
	.st0{fill:#283488;}
	.st1{fill:#EC1C24;}
</style>
<g>
	<g>
		<path class="st0" d="M42.5,76.6l-3.6-6.5H36v6.5h-1.6c-1.3,0-2.3-1-2.3-2.3V58.2h8.6c3.9,0,6.2,2.5,6.2,5.9c0,3.2-2.1,5-4.1,5.5
			l4.2,7H42.5z M42.9,64.1c0-1.5-1.2-2.5-2.7-2.5H36v5h4.2C41.7,66.7,42.9,65.7,42.9,64.1z"/>
	</g>
	<g>
		<path class="st0" d="M49.8,76.6V58.2h13v1.1c0,1.3-1,2.2-2.2,2.2h-6.8v3.9H61c1,0,1.7,0.8,1.7,1.7l0,0c0,1-0.8,1.7-1.7,1.7h-7.2
			V73h6.8c1.3,0,2.2,1,2.2,2.2v1.2h-13V76.6z"/>
	</g>
	<g>
		<path class="st0" d="M78.6,76.6l-8.8-12.1v12h-1.6c-1.3,0-2.2-1-2.2-2.2V58.2h4l8.5,11.6V58.2h1.6c1.3,0,2.2,1,2.2,2.2v16.1
			L78.6,76.6L78.6,76.6z"/>
	</g>
	<g>
		<path class="st0" d="M90.3,76.6V61.7h-3.1c-1.3,0-2.2-1-2.2-2.2v-1.2h14.7v1.1c0,1.3-1,2.2-2.2,2.2h-3.1v14.9L90.3,76.6L90.3,76.6
			z"/>
	</g>
	<g>
		<path class="st0" d="M121.4,75.1l-0.6-1.6h-7.9l-0.6,1.6c-0.3,0.9-1.2,1.4-2.2,1.4h-2.9l7.1-18.4h4.9l7.1,18.4h-2.9
			C122.5,76.6,121.7,76.1,121.4,75.1z M116.8,62.2l-2.9,8h5.7L116.8,62.2z"/>
	</g>
	<g>
		<path class="st0" d="M134.2,67.5c0-5.7,4.3-9.6,9.8-9.6c4,0,6.3,2.2,7.7,4.5l-1.7,0.8c-0.9,0.4-1.9,0.2-2.7-0.4
			c-0.9-0.9-2.1-1.4-3.4-1.4c-3.4,0-5.8,2.6-5.8,6c0,3.4,2.4,6,5.8,6c1.3,0,2.5-0.6,3.4-1.4c0.7-0.6,1.8-0.9,2.6-0.5l1.7,0.8
			c-1.3,2.3-3.6,4.5-7.7,4.5C138.6,77,134.2,73.1,134.2,67.5z"/>
	</g>
	<g>
		<path class="st0" d="M166,75.1l-0.6-1.6h-7.9l-0.6,1.6c-0.3,0.9-1.2,1.4-2.2,1.4h-2.9l7.1-18.4h4.9l7.1,18.4H168
			C167.2,76.6,166.4,76.1,166,75.1z M161.5,62.2l-2.9,8h5.7L161.5,62.2z"/>
	</g>
	<g>
		<path class="st0" d="M172.8,76.6l4.2-7c-2-0.5-4.1-2.2-4.1-5.5c0-3.5,2.4-5.9,6.2-5.9h8.6v16.1c0,1.3-1,2.2-2.2,2.2h-1.6V70H181
			l-3.6,6.5h-4.6V76.6z M179.6,66.7h4.2v-5h-4.2c-1.5,0-2.7,1-2.7,2.5C176.9,65.7,178.1,66.7,179.6,66.7z"/>
	</g>
</g>
<g>
	<path class="st1" d="M100.7,26.7l-8-12.9c-0.8-1.2-2.1-2-3.5-2h-7.8l15.3,23.7c0.4,0.6,0.6,1.4,0.6,2.2v15.9h8.9V37.8
		c0-0.8,0.2-1.6,0.6-2.2l15.3-23.7h-7.8c-1.4,0-2.8,0.7-3.5,2l-8,12.9C102.5,27.6,101.2,27.6,100.7,26.7z"/>
</g>
<g>
	<path class="st1" d="M129.7,11.8h-4.8v41.9h26.7v-3.6c0-2.3-1.8-4.2-4.2-4.2h-13.5V16C133.9,13.7,132.1,11.8,129.7,11.8z"/>
</g>
<g>
	<path class="st1" d="M196.5,11.8v26.3l-18.2-24.6c-0.8-1-2-1.7-3.4-1.7h-7.1v41.9h8.9V26.4l18.7,25.5c0.8,1,2,1.7,3.4,1.7h6.4V16
		c0-2.3-1.8-4.2-4.2-4.2C201.2,11.8,196.5,11.8,196.5,11.8z"/>
</g>
<g>
	<path class="st1" d="M35.7,11.8c-12.1,0.2-21.3,8.5-21.3,21c0,12.3,9.2,20.8,21.3,20.9h10v-3.5c0-2.3-1.8-4.2-4.2-4.2h-5.8
		c-7.2-0.2-12.5-5.7-12.5-13.3s5.2-13.1,12.5-13.3l0,0h5.8c2.3,0,4.2-1.8,4.2-4.2v-3.5h-10V11.8z"/>
</g>
<g>
	<path class="st1" d="M49.2,53.7h29.6v-3.6c0-2.3-1.8-4.2-4.2-4.2H58.2v-9.6H75c2.2,0,3.9-1.8,3.9-3.9l0,0c0-2.2-1.8-3.9-3.9-3.9
		H58.2v-8.8h16.5c2.3,0,4.2-1.8,4.2-4.2v-3.7H49.2V53.7z"/>
</g>
<g>
	<path class="st1" d="M48.9,36.3h14.5c1.8,0,3.2-1.4,3.2-3.2v-1.4c0-1.8-1.4-3.2-3.2-3.2H48.9c-1.8,0-3.2,1.4-3.2,3.2v1.4
		C45.7,34.9,47.1,36.3,48.9,36.3z"/>
</g>
<g>
	<path class="st1" d="M155.2,53.7h5.5c1.8,0,3.5-1.5,3.5-3.5V21h-8.9v32.7H155.2z"/>
</g>
<g>
	<path class="st0" d="M164.1,11.9h-5.5c-1.8,0-3.5,1.5-3.5,3.5v4h8.9v-7.5H164.1z"/>
</g>
<g>
	<path class="st0" d="M35.2,70.1h-19c-1,0-1.7-0.8-1.7-1.7l0,0c0-1,0.8-1.7,1.7-1.7h19c1,0,1.7,0.8,1.7,1.7l0,0
		C36.9,69.3,36.1,70.1,35.2,70.1z"/>
</g>
<g>
	<path class="st0" d="M203.6,70.1h-19c-1,0-1.7-0.8-1.7-1.7l0,0c0-1,0.8-1.7,1.7-1.7h19c1,0,1.7,0.8,1.7,1.7l0,0
		C205.4,69.3,204.6,70.1,203.6,70.1z"/>
</g>
</svg>
